<svg width="335" height="117" viewBox="0 0 335 117" fill="none" xmlns="http://www.w3.org/2000/svg">
<g filter="url(#filter0_i_113_88)">
<path d="M7.54261 108H0.951705L10.9943 78.9091H18.9205L28.9489 108H22.358L15.071 85.5568H14.8438L7.54261 108ZM7.13068 96.5653H22.6989V101.366H7.13068V96.5653ZM38.6009 78.9091V108H32.4503V78.9091H38.6009ZM68.7003 87.2756C68.5866 86.1297 68.099 85.2396 67.2372 84.6051C66.3755 83.9706 65.206 83.6534 63.7287 83.6534C62.7249 83.6534 61.8774 83.7955 61.1861 84.0795C60.4948 84.3542 59.9645 84.7377 59.5952 85.2301C59.2353 85.7225 59.0554 86.2812 59.0554 86.9062C59.0365 87.4271 59.1454 87.8816 59.3821 88.2699C59.6283 88.6581 59.9645 88.9943 60.3906 89.2784C60.8168 89.553 61.3092 89.7945 61.8679 90.0028C62.4266 90.2017 63.0232 90.3722 63.6577 90.5142L66.2713 91.1392C67.5402 91.4233 68.705 91.8021 69.7656 92.2756C70.8262 92.7491 71.7448 93.3314 72.5213 94.0227C73.2978 94.714 73.8991 95.5284 74.3253 96.4659C74.7609 97.4034 74.9834 98.4782 74.9929 99.6903C74.9834 101.471 74.5289 103.014 73.6293 104.321C72.7391 105.618 71.4512 106.627 69.7656 107.347C68.0895 108.057 66.0677 108.412 63.7003 108.412C61.3518 108.412 59.3063 108.052 57.5639 107.332C55.831 106.613 54.4768 105.547 53.5014 104.136C52.5355 102.716 52.0289 100.959 51.9815 98.8665H57.9332C57.9995 99.8419 58.2789 100.656 58.7713 101.31C59.2732 101.954 59.9408 102.441 60.7741 102.773C61.617 103.095 62.5687 103.256 63.6293 103.256C64.6709 103.256 65.5753 103.104 66.3423 102.801C67.1188 102.498 67.7202 102.077 68.1463 101.537C68.5724 100.997 68.7855 100.377 68.7855 99.6761C68.7855 99.0227 68.5914 98.4735 68.2031 98.0284C67.8243 97.5833 67.2656 97.2045 66.527 96.892C65.7978 96.5795 64.9029 96.2955 63.8423 96.0398L60.6747 95.2443C58.2221 94.6477 56.2855 93.715 54.8651 92.446C53.4446 91.1771 52.7391 89.4678 52.7486 87.3182C52.7391 85.5568 53.2079 84.018 54.1548 82.7017C55.1113 81.3854 56.4228 80.358 58.0895 79.6193C59.7562 78.8807 61.6501 78.5114 63.7713 78.5114C65.9304 78.5114 67.8149 78.8807 69.4247 79.6193C71.044 80.358 72.3035 81.3854 73.2031 82.7017C74.1027 84.018 74.5668 85.5426 74.5952 87.2756H68.7003ZM88.9595 108.426C86.7152 108.426 84.7834 107.972 83.1641 107.062C81.5542 106.144 80.3137 104.847 79.4425 103.17C78.5713 101.485 78.1357 99.4915 78.1357 97.1903C78.1357 94.946 78.5713 92.9763 79.4425 91.2812C80.3137 89.5862 81.54 88.2652 83.1214 87.3182C84.7124 86.3712 86.5779 85.8977 88.718 85.8977C90.1574 85.8977 91.4974 86.1297 92.7379 86.5938C93.9879 87.0483 95.0769 87.7348 96.005 88.6534C96.9425 89.572 97.6716 90.7273 98.1925 92.1193C98.7133 93.5019 98.9737 95.1212 98.9737 96.9773V98.6392H80.5504V94.8892H93.2777C93.2777 94.018 93.0883 93.2462 92.7095 92.5739C92.3307 91.9015 91.8052 91.3759 91.1328 90.9972C90.4699 90.6089 89.6982 90.4148 88.8175 90.4148C87.8989 90.4148 87.0845 90.6278 86.3743 91.054C85.6735 91.4706 85.1243 92.0341 84.7266 92.7443C84.3288 93.4451 84.1252 94.2263 84.1158 95.0881V98.6534C84.1158 99.733 84.3146 100.666 84.7124 101.452C85.1196 102.238 85.6925 102.844 86.4311 103.27C87.1697 103.696 88.0457 103.909 89.0589 103.909C89.7313 103.909 90.3468 103.814 90.9055 103.625C91.4643 103.436 91.9425 103.152 92.3402 102.773C92.7379 102.394 93.041 101.93 93.2493 101.381L98.8459 101.75C98.5618 103.095 97.9794 104.269 97.0987 105.273C96.2275 106.267 95.1006 107.044 93.718 107.602C92.3449 108.152 90.7588 108.426 88.9595 108.426ZM102.923 108V86.1818H108.789V89.9886H109.016C109.414 88.6345 110.082 87.6117 111.019 86.9205C111.957 86.2197 113.036 85.8693 114.258 85.8693C114.561 85.8693 114.888 85.8883 115.238 85.9261C115.588 85.964 115.896 86.0161 116.161 86.0824V91.4517C115.877 91.3665 115.484 91.2907 114.982 91.2244C114.48 91.1581 114.021 91.125 113.604 91.125C112.714 91.125 111.919 91.3191 111.218 91.7074C110.527 92.0862 109.978 92.6165 109.57 93.2983C109.173 93.9801 108.974 94.7661 108.974 95.6562V108H102.923ZM140.295 86.1818L132.667 108H125.849L118.221 86.1818H124.613L129.144 101.793H129.371L133.888 86.1818H140.295ZM143.391 108V86.1818H149.442V108H143.391ZM146.431 83.3693C145.531 83.3693 144.76 83.071 144.116 82.4744C143.481 81.8684 143.164 81.1439 143.164 80.3011C143.164 79.4678 143.481 78.7528 144.116 78.1562C144.76 77.5502 145.531 77.2472 146.431 77.2472C147.331 77.2472 148.098 77.5502 148.732 78.1562C149.376 78.7528 149.698 79.4678 149.698 80.3011C149.698 81.1439 149.376 81.8684 148.732 82.4744C148.098 83.071 147.331 83.3693 146.431 83.3693ZM164.148 108.426C161.913 108.426 159.991 107.953 158.381 107.006C156.78 106.049 155.549 104.723 154.688 103.028C153.835 101.333 153.409 99.3826 153.409 97.1761C153.409 94.9413 153.84 92.9811 154.702 91.2955C155.573 89.6004 156.809 88.2794 158.409 87.3324C160.009 86.3759 161.913 85.8977 164.119 85.8977C166.023 85.8977 167.689 86.2434 169.119 86.9347C170.549 87.6259 171.681 88.5966 172.514 89.8466C173.348 91.0966 173.807 92.5644 173.892 94.25H168.182C168.021 93.161 167.595 92.285 166.903 91.6222C166.222 90.9498 165.327 90.6136 164.219 90.6136C163.281 90.6136 162.462 90.8693 161.761 91.3807C161.07 91.8826 160.53 92.6165 160.142 93.5824C159.754 94.5483 159.56 95.7178 159.56 97.0909C159.56 98.483 159.749 99.6667 160.128 100.642C160.516 101.617 161.061 102.361 161.761 102.872C162.462 103.384 163.281 103.639 164.219 103.639C164.91 103.639 165.53 103.497 166.08 103.213C166.638 102.929 167.098 102.517 167.457 101.977C167.827 101.428 168.068 100.77 168.182 100.003H173.892C173.797 101.67 173.343 103.137 172.528 104.406C171.723 105.666 170.611 106.651 169.19 107.361C167.77 108.071 166.089 108.426 164.148 108.426ZM187.71 108.426C185.465 108.426 183.533 107.972 181.914 107.062C180.304 106.144 179.064 104.847 178.192 103.17C177.321 101.485 176.886 99.4915 176.886 97.1903C176.886 94.946 177.321 92.9763 178.192 91.2812C179.064 89.5862 180.29 88.2652 181.871 87.3182C183.462 86.3712 185.328 85.8977 187.468 85.8977C188.907 85.8977 190.247 86.1297 191.488 86.5938C192.738 87.0483 193.827 87.7348 194.755 88.6534C195.692 89.572 196.422 90.7273 196.942 92.1193C197.463 93.5019 197.724 95.1212 197.724 96.9773V98.6392H179.3V94.8892H192.028C192.028 94.018 191.838 93.2462 191.46 92.5739C191.081 91.9015 190.555 91.3759 189.883 90.9972C189.22 90.6089 188.448 90.4148 187.567 90.4148C186.649 90.4148 185.835 90.6278 185.124 91.054C184.424 91.4706 183.874 92.0341 183.477 92.7443C183.079 93.4451 182.875 94.2263 182.866 95.0881V98.6534C182.866 99.733 183.065 100.666 183.462 101.452C183.87 102.238 184.442 102.844 185.181 103.27C185.92 103.696 186.796 103.909 187.809 103.909C188.481 103.909 189.097 103.814 189.656 103.625C190.214 103.436 190.692 103.152 191.09 102.773C191.488 102.394 191.791 101.93 191.999 101.381L197.596 101.75C197.312 103.095 196.729 104.269 195.849 105.273C194.978 106.267 193.851 107.044 192.468 107.602C191.095 108.152 189.509 108.426 187.71 108.426ZM211.044 108V78.9091H222.692C224.832 78.9091 226.617 79.2263 228.047 79.8608C229.477 80.4953 230.552 81.3759 231.271 82.5028C231.991 83.6203 232.351 84.9081 232.351 86.3665C232.351 87.5028 232.124 88.5019 231.669 89.3636C231.214 90.2159 230.589 90.9167 229.794 91.4659C229.008 92.0057 228.108 92.3892 227.095 92.6165V92.9006C228.203 92.9479 229.24 93.2604 230.206 93.8381C231.181 94.4157 231.972 95.2254 232.578 96.267C233.184 97.2992 233.487 98.5303 233.487 99.9602C233.487 101.504 233.104 102.882 232.337 104.094C231.579 105.296 230.457 106.248 228.97 106.949C227.483 107.65 225.651 108 223.473 108H211.044ZM217.195 102.972H222.209C223.923 102.972 225.173 102.645 225.959 101.991C226.745 101.329 227.138 100.448 227.138 99.3494C227.138 98.5445 226.944 97.8343 226.555 97.2188C226.167 96.6032 225.613 96.1203 224.893 95.7699C224.183 95.4195 223.336 95.2443 222.351 95.2443H217.195V102.972ZM217.195 91.0824H221.754C222.597 91.0824 223.345 90.9356 223.999 90.642C224.661 90.339 225.182 89.9129 225.561 89.3636C225.949 88.8144 226.143 88.1562 226.143 87.3892C226.143 86.3381 225.769 85.4905 225.021 84.8466C224.283 84.2027 223.232 83.8807 221.868 83.8807H217.195V91.0824ZM251.367 98.7102V86.1818H257.418V108H251.609V104.037H251.381C250.889 105.315 250.07 106.343 248.924 107.119C247.788 107.896 246.4 108.284 244.762 108.284C243.304 108.284 242.021 107.953 240.913 107.29C239.805 106.627 238.938 105.685 238.313 104.463C237.698 103.241 237.385 101.778 237.376 100.074V86.1818H243.427V98.9943C243.436 100.282 243.782 101.3 244.464 102.048C245.146 102.796 246.059 103.17 247.205 103.17C247.934 103.17 248.616 103.005 249.251 102.673C249.885 102.332 250.397 101.83 250.785 101.168C251.183 100.505 251.377 99.6856 251.367 98.7102ZM270.298 108.355C268.641 108.355 267.14 107.929 265.795 107.077C264.46 106.215 263.4 104.951 262.614 103.284C261.837 101.608 261.449 99.553 261.449 97.1193C261.449 94.6193 261.851 92.5407 262.656 90.8835C263.461 89.2169 264.531 87.9716 265.866 87.1477C267.211 86.3144 268.684 85.8977 270.284 85.8977C271.506 85.8977 272.524 86.1061 273.338 86.5227C274.162 86.9299 274.825 87.4413 275.327 88.0568C275.838 88.6629 276.226 89.2595 276.491 89.8466H276.676V78.9091H282.713V108H276.747V104.506H276.491C276.207 105.112 275.805 105.713 275.284 106.31C274.773 106.897 274.105 107.384 273.281 107.773C272.467 108.161 271.473 108.355 270.298 108.355ZM272.216 103.54C273.191 103.54 274.015 103.275 274.688 102.744C275.369 102.205 275.89 101.452 276.25 100.486C276.619 99.5199 276.804 98.3883 276.804 97.0909C276.804 95.7936 276.624 94.6667 276.264 93.7102C275.904 92.7538 275.384 92.0152 274.702 91.4943C274.02 90.9735 273.191 90.7131 272.216 90.7131C271.222 90.7131 270.384 90.983 269.702 91.5227C269.02 92.0625 268.504 92.8106 268.153 93.767C267.803 94.7235 267.628 95.8314 267.628 97.0909C267.628 98.3598 267.803 99.482 268.153 100.457C268.513 101.423 269.029 102.181 269.702 102.73C270.384 103.27 271.222 103.54 272.216 103.54ZM295.728 108.355C294.071 108.355 292.57 107.929 291.225 107.077C289.89 106.215 288.829 104.951 288.043 103.284C287.267 101.608 286.879 99.553 286.879 97.1193C286.879 94.6193 287.281 92.5407 288.086 90.8835C288.891 89.2169 289.961 87.9716 291.296 87.1477C292.641 86.3144 294.113 85.8977 295.714 85.8977C296.935 85.8977 297.953 86.1061 298.768 86.5227C299.592 86.9299 300.254 87.4413 300.756 88.0568C301.268 88.6629 301.656 89.2595 301.921 89.8466H302.106V78.9091H308.143V108H302.177V104.506H301.921C301.637 105.112 301.235 105.713 300.714 106.31C300.202 106.897 299.535 107.384 298.711 107.773C297.897 108.161 296.902 108.355 295.728 108.355ZM297.646 103.54C298.621 103.54 299.445 103.275 300.117 102.744C300.799 102.205 301.32 101.452 301.68 100.486C302.049 99.5199 302.234 98.3883 302.234 97.0909C302.234 95.7936 302.054 94.6667 301.694 93.7102C301.334 92.7538 300.813 92.0152 300.131 91.4943C299.45 90.9735 298.621 90.7131 297.646 90.7131C296.651 90.7131 295.813 90.983 295.131 91.5227C294.45 92.0625 293.933 92.8106 293.583 93.767C293.233 94.7235 293.058 95.8314 293.058 97.0909C293.058 98.3598 293.233 99.482 293.583 100.457C293.943 101.423 294.459 102.181 295.131 102.73C295.813 103.27 296.651 103.54 297.646 103.54ZM316.854 116.182C316.087 116.182 315.367 116.12 314.695 115.997C314.032 115.884 313.482 115.737 313.047 115.557L314.411 111.04C315.121 111.258 315.76 111.376 316.328 111.395C316.906 111.414 317.403 111.281 317.82 110.997C318.246 110.713 318.591 110.23 318.857 109.548L319.212 108.625L311.385 86.1818H317.749L322.266 102.205H322.493L327.053 86.1818H333.459L324.979 110.358C324.571 111.532 324.018 112.555 323.317 113.426C322.625 114.307 321.75 114.984 320.689 115.457C319.628 115.94 318.35 116.182 316.854 116.182Z" fill="#D70200"/>
</g>
<path d="M7.54261 108H0.951705L10.9943 78.9091H18.9205L28.9489 108H22.358L15.071 85.5568H14.8438L7.54261 108ZM7.13068 96.5653H22.6989V101.366H7.13068V96.5653ZM38.6009 78.9091V108H32.4503V78.9091H38.6009ZM68.7003 87.2756C68.5866 86.1297 68.099 85.2396 67.2372 84.6051C66.3755 83.9706 65.206 83.6534 63.7287 83.6534C62.7249 83.6534 61.8774 83.7955 61.1861 84.0795C60.4948 84.3542 59.9645 84.7377 59.5952 85.2301C59.2353 85.7225 59.0554 86.2812 59.0554 86.9062C59.0365 87.4271 59.1454 87.8816 59.3821 88.2699C59.6283 88.6581 59.9645 88.9943 60.3906 89.2784C60.8168 89.553 61.3092 89.7945 61.8679 90.0028C62.4266 90.2017 63.0232 90.3722 63.6577 90.5142L66.2713 91.1392C67.5402 91.4233 68.705 91.8021 69.7656 92.2756C70.8262 92.7491 71.7448 93.3314 72.5213 94.0227C73.2978 94.714 73.8991 95.5284 74.3253 96.4659C74.7609 97.4034 74.9834 98.4782 74.9929 99.6903C74.9834 101.471 74.5289 103.014 73.6293 104.321C72.7391 105.618 71.4512 106.627 69.7656 107.347C68.0895 108.057 66.0677 108.412 63.7003 108.412C61.3518 108.412 59.3063 108.052 57.5639 107.332C55.831 106.613 54.4768 105.547 53.5014 104.136C52.5355 102.716 52.0289 100.959 51.9815 98.8665H57.9332C57.9995 99.8419 58.2789 100.656 58.7713 101.31C59.2732 101.954 59.9408 102.441 60.7741 102.773C61.617 103.095 62.5687 103.256 63.6293 103.256C64.6709 103.256 65.5753 103.104 66.3423 102.801C67.1188 102.498 67.7202 102.077 68.1463 101.537C68.5724 100.997 68.7855 100.377 68.7855 99.6761C68.7855 99.0227 68.5914 98.4735 68.2031 98.0284C67.8243 97.5833 67.2656 97.2045 66.527 96.892C65.7978 96.5795 64.9029 96.2955 63.8423 96.0398L60.6747 95.2443C58.2221 94.6477 56.2855 93.715 54.8651 92.446C53.4446 91.1771 52.7391 89.4678 52.7486 87.3182C52.7391 85.5568 53.2079 84.018 54.1548 82.7017C55.1113 81.3854 56.4228 80.358 58.0895 79.6193C59.7562 78.8807 61.6501 78.5114 63.7713 78.5114C65.9304 78.5114 67.8149 78.8807 69.4247 79.6193C71.044 80.358 72.3035 81.3854 73.2031 82.7017C74.1027 84.018 74.5668 85.5426 74.5952 87.2756H68.7003ZM88.9595 108.426C86.7152 108.426 84.7834 107.972 83.1641 107.062C81.5542 106.144 80.3137 104.847 79.4425 103.17C78.5713 101.485 78.1357 99.4915 78.1357 97.1903C78.1357 94.946 78.5713 92.9763 79.4425 91.2812C80.3137 89.5862 81.54 88.2652 83.1214 87.3182C84.7124 86.3712 86.5779 85.8977 88.718 85.8977C90.1574 85.8977 91.4974 86.1297 92.7379 86.5938C93.9879 87.0483 95.0769 87.7348 96.005 88.6534C96.9425 89.572 97.6716 90.7273 98.1925 92.1193C98.7133 93.5019 98.9737 95.1212 98.9737 96.9773V98.6392H80.5504V94.8892H93.2777C93.2777 94.018 93.0883 93.2462 92.7095 92.5739C92.3307 91.9015 91.8052 91.3759 91.1328 90.9972C90.4699 90.6089 89.6982 90.4148 88.8175 90.4148C87.8989 90.4148 87.0845 90.6278 86.3743 91.054C85.6735 91.4706 85.1243 92.0341 84.7266 92.7443C84.3288 93.4451 84.1252 94.2263 84.1158 95.0881V98.6534C84.1158 99.733 84.3146 100.666 84.7124 101.452C85.1196 102.238 85.6925 102.844 86.4311 103.27C87.1697 103.696 88.0457 103.909 89.0589 103.909C89.7313 103.909 90.3468 103.814 90.9055 103.625C91.4643 103.436 91.9425 103.152 92.3402 102.773C92.7379 102.394 93.041 101.93 93.2493 101.381L98.8459 101.75C98.5618 103.095 97.9794 104.269 97.0987 105.273C96.2275 106.267 95.1006 107.044 93.718 107.602C92.3449 108.152 90.7588 108.426 88.9595 108.426ZM102.923 108V86.1818H108.789V89.9886H109.016C109.414 88.6345 110.082 87.6117 111.019 86.9205C111.957 86.2197 113.036 85.8693 114.258 85.8693C114.561 85.8693 114.888 85.8883 115.238 85.9261C115.588 85.964 115.896 86.0161 116.161 86.0824V91.4517C115.877 91.3665 115.484 91.2907 114.982 91.2244C114.48 91.1581 114.021 91.125 113.604 91.125C112.714 91.125 111.919 91.3191 111.218 91.7074C110.527 92.0862 109.978 92.6165 109.57 93.2983C109.173 93.9801 108.974 94.7661 108.974 95.6562V108H102.923ZM140.295 86.1818L132.667 108H125.849L118.221 86.1818H124.613L129.144 101.793H129.371L133.888 86.1818H140.295ZM143.391 108V86.1818H149.442V108H143.391ZM146.431 83.3693C145.531 83.3693 144.76 83.071 144.116 82.4744C143.481 81.8684 143.164 81.1439 143.164 80.3011C143.164 79.4678 143.481 78.7528 144.116 78.1562C144.76 77.5502 145.531 77.2472 146.431 77.2472C147.331 77.2472 148.098 77.5502 148.732 78.1562C149.376 78.7528 149.698 79.4678 149.698 80.3011C149.698 81.1439 149.376 81.8684 148.732 82.4744C148.098 83.071 147.331 83.3693 146.431 83.3693ZM164.148 108.426C161.913 108.426 159.991 107.953 158.381 107.006C156.78 106.049 155.549 104.723 154.688 103.028C153.835 101.333 153.409 99.3826 153.409 97.1761C153.409 94.9413 153.84 92.9811 154.702 91.2955C155.573 89.6004 156.809 88.2794 158.409 87.3324C160.009 86.3759 161.913 85.8977 164.119 85.8977C166.023 85.8977 167.689 86.2434 169.119 86.9347C170.549 87.6259 171.681 88.5966 172.514 89.8466C173.348 91.0966 173.807 92.5644 173.892 94.25H168.182C168.021 93.161 167.595 92.285 166.903 91.6222C166.222 90.9498 165.327 90.6136 164.219 90.6136C163.281 90.6136 162.462 90.8693 161.761 91.3807C161.07 91.8826 160.53 92.6165 160.142 93.5824C159.754 94.5483 159.56 95.7178 159.56 97.0909C159.56 98.483 159.749 99.6667 160.128 100.642C160.516 101.617 161.061 102.361 161.761 102.872C162.462 103.384 163.281 103.639 164.219 103.639C164.91 103.639 165.53 103.497 166.08 103.213C166.638 102.929 167.098 102.517 167.457 101.977C167.827 101.428 168.068 100.77 168.182 100.003H173.892C173.797 101.67 173.343 103.137 172.528 104.406C171.723 105.666 170.611 106.651 169.19 107.361C167.77 108.071 166.089 108.426 164.148 108.426ZM187.71 108.426C185.465 108.426 183.533 107.972 181.914 107.062C180.304 106.144 179.064 104.847 178.192 103.17C177.321 101.485 176.886 99.4915 176.886 97.1903C176.886 94.946 177.321 92.9763 178.192 91.2812C179.064 89.5862 180.29 88.2652 181.871 87.3182C183.462 86.3712 185.328 85.8977 187.468 85.8977C188.907 85.8977 190.247 86.1297 191.488 86.5938C192.738 87.0483 193.827 87.7348 194.755 88.6534C195.692 89.572 196.422 90.7273 196.942 92.1193C197.463 93.5019 197.724 95.1212 197.724 96.9773V98.6392H179.3V94.8892H192.028C192.028 94.018 191.838 93.2462 191.46 92.5739C191.081 91.9015 190.555 91.3759 189.883 90.9972C189.22 90.6089 188.448 90.4148 187.567 90.4148C186.649 90.4148 185.835 90.6278 185.124 91.054C184.424 91.4706 183.874 92.0341 183.477 92.7443C183.079 93.4451 182.875 94.2263 182.866 95.0881V98.6534C182.866 99.733 183.065 100.666 183.462 101.452C183.87 102.238 184.442 102.844 185.181 103.27C185.92 103.696 186.796 103.909 187.809 103.909C188.481 103.909 189.097 103.814 189.656 103.625C190.214 103.436 190.692 103.152 191.09 102.773C191.488 102.394 191.791 101.93 191.999 101.381L197.596 101.75C197.312 103.095 196.729 104.269 195.849 105.273C194.978 106.267 193.851 107.044 192.468 107.602C191.095 108.152 189.509 108.426 187.71 108.426ZM211.044 108V78.9091H222.692C224.832 78.9091 226.617 79.2263 228.047 79.8608C229.477 80.4953 230.552 81.3759 231.271 82.5028C231.991 83.6203 232.351 84.9081 232.351 86.3665C232.351 87.5028 232.124 88.5019 231.669 89.3636C231.214 90.2159 230.589 90.9167 229.794 91.4659C229.008 92.0057 228.108 92.3892 227.095 92.6165V92.9006C228.203 92.9479 229.24 93.2604 230.206 93.8381C231.181 94.4157 231.972 95.2254 232.578 96.267C233.184 97.2992 233.487 98.5303 233.487 99.9602C233.487 101.504 233.104 102.882 232.337 104.094C231.579 105.296 230.457 106.248 228.97 106.949C227.483 107.65 225.651 108 223.473 108H211.044ZM217.195 102.972H222.209C223.923 102.972 225.173 102.645 225.959 101.991C226.745 101.329 227.138 100.448 227.138 99.3494C227.138 98.5445 226.944 97.8343 226.555 97.2188C226.167 96.6032 225.613 96.1203 224.893 95.7699C224.183 95.4195 223.336 95.2443 222.351 95.2443H217.195V102.972ZM217.195 91.0824H221.754C222.597 91.0824 223.345 90.9356 223.999 90.642C224.661 90.339 225.182 89.9129 225.561 89.3636C225.949 88.8144 226.143 88.1562 226.143 87.3892C226.143 86.3381 225.769 85.4905 225.021 84.8466C224.283 84.2027 223.232 83.8807 221.868 83.8807H217.195V91.0824ZM251.367 98.7102V86.1818H257.418V108H251.609V104.037H251.381C250.889 105.315 250.07 106.343 248.924 107.119C247.788 107.896 246.4 108.284 244.762 108.284C243.304 108.284 242.021 107.953 240.913 107.29C239.805 106.627 238.938 105.685 238.313 104.463C237.698 103.241 237.385 101.778 237.376 100.074V86.1818H243.427V98.9943C243.436 100.282 243.782 101.3 244.464 102.048C245.146 102.796 246.059 103.17 247.205 103.17C247.934 103.17 248.616 103.005 249.251 102.673C249.885 102.332 250.397 101.83 250.785 101.168C251.183 100.505 251.377 99.6856 251.367 98.7102ZM270.298 108.355C268.641 108.355 267.14 107.929 265.795 107.077C264.46 106.215 263.4 104.951 262.614 103.284C261.837 101.608 261.449 99.553 261.449 97.1193C261.449 94.6193 261.851 92.5407 262.656 90.8835C263.461 89.2169 264.531 87.9716 265.866 87.1477C267.211 86.3144 268.684 85.8977 270.284 85.8977C271.506 85.8977 272.524 86.1061 273.338 86.5227C274.162 86.9299 274.825 87.4413 275.327 88.0568C275.838 88.6629 276.226 89.2595 276.491 89.8466H276.676V78.9091H282.713V108H276.747V104.506H276.491C276.207 105.112 275.805 105.713 275.284 106.31C274.773 106.897 274.105 107.384 273.281 107.773C272.467 108.161 271.473 108.355 270.298 108.355ZM272.216 103.54C273.191 103.54 274.015 103.275 274.688 102.744C275.369 102.205 275.89 101.452 276.25 100.486C276.619 99.5199 276.804 98.3883 276.804 97.0909C276.804 95.7936 276.624 94.6667 276.264 93.7102C275.904 92.7538 275.384 92.0152 274.702 91.4943C274.02 90.9735 273.191 90.7131 272.216 90.7131C271.222 90.7131 270.384 90.983 269.702 91.5227C269.02 92.0625 268.504 92.8106 268.153 93.767C267.803 94.7235 267.628 95.8314 267.628 97.0909C267.628 98.3598 267.803 99.482 268.153 100.457C268.513 101.423 269.029 102.181 269.702 102.73C270.384 103.27 271.222 103.54 272.216 103.54ZM295.728 108.355C294.071 108.355 292.57 107.929 291.225 107.077C289.89 106.215 288.829 104.951 288.043 103.284C287.267 101.608 286.879 99.553 286.879 97.1193C286.879 94.6193 287.281 92.5407 288.086 90.8835C288.891 89.2169 289.961 87.9716 291.296 87.1477C292.641 86.3144 294.113 85.8977 295.714 85.8977C296.935 85.8977 297.953 86.1061 298.768 86.5227C299.592 86.9299 300.254 87.4413 300.756 88.0568C301.268 88.6629 301.656 89.2595 301.921 89.8466H302.106V78.9091H308.143V108H302.177V104.506H301.921C301.637 105.112 301.235 105.713 300.714 106.31C300.202 106.897 299.535 107.384 298.711 107.773C297.897 108.161 296.902 108.355 295.728 108.355ZM297.646 103.54C298.621 103.54 299.445 103.275 300.117 102.744C300.799 102.205 301.32 101.452 301.68 100.486C302.049 99.5199 302.234 98.3883 302.234 97.0909C302.234 95.7936 302.054 94.6667 301.694 93.7102C301.334 92.7538 300.813 92.0152 300.131 91.4943C299.45 90.9735 298.621 90.7131 297.646 90.7131C296.651 90.7131 295.813 90.983 295.131 91.5227C294.45 92.0625 293.933 92.8106 293.583 93.767C293.233 94.7235 293.058 95.8314 293.058 97.0909C293.058 98.3598 293.233 99.482 293.583 100.457C293.943 101.423 294.459 102.181 295.131 102.73C295.813 103.27 296.651 103.54 297.646 103.54ZM316.854 116.182C316.087 116.182 315.367 116.12 314.695 115.997C314.032 115.884 313.482 115.737 313.047 115.557L314.411 111.04C315.121 111.258 315.76 111.376 316.328 111.395C316.906 111.414 317.403 111.281 317.82 110.997C318.246 110.713 318.591 110.23 318.857 109.548L319.212 108.625L311.385 86.1818H317.749L322.266 102.205H322.493L327.053 86.1818H333.459L324.979 110.358C324.571 111.532 324.018 112.555 323.317 113.426C322.625 114.307 321.75 114.984 320.689 115.457C319.628 115.94 318.35 116.182 316.854 116.182Z" fill="#D70200"/>
<path d="M147.323 55.9096C148.481 55.9096 155.526 55.8717 161.214 55.4763C168.087 54.9972 171.63 52.6432 174.225 49.2701C177.445 45.0956 177.424 37.2682 177.42 31.1769C177.416 24.3745 177.51 4.66591 177.481 2.90848C177.458 1.14419 176.79 0.227597 174.77 0.244577C172.748 0.257312 167.048 0.244577 165.092 0.261231L161.606 0.244904C159.584 0.227924 158.918 1.14419 158.889 2.90815V4.79783C158.918 6.88376 158.861 26.7683 158.853 31.4303V33.4953C158.799 37.7893 158.275 41.9657 152.195 42.6123C149.573 42.8882 148.371 43.0116 145.121 43.0116C141.868 43.0116 140.669 42.8882 138.011 42.612C131.933 41.9739 131.565 37.789 131.508 33.4953V31.43C131.5 26.7683 131.443 6.88408 131.469 4.7975V2.90848C131.443 1.14452 130.773 0.22825 128.756 0.244904L125.266 0.261231C123.309 0.244904 117.613 0.257312 115.589 0.244904C113.572 0.227924 112.904 1.14419 112.881 2.90815C112.851 4.66591 112.872 24.3745 112.864 31.1769C112.86 37.2682 112.843 45.0956 116.059 49.2704C118.648 52.6432 122.142 54.9972 128.992 55.4763C134.68 55.876 141.516 55.9096 143.031 55.9096H147.323H147.323ZM23.7808 53.3521C23.7409 55.2666 23.1753 56.0219 21.2125 56.068C19.2431 56.1245 9.60865 56.0931 7.8534 56.0784C6.106 56.0598 5.02944 55.5302 5.02519 53.6575C5.01244 51.787 5.01244 4.75113 5.00002 2.96432C4.99577 1.18566 5.83596 0.342865 7.68144 0.39903C9.523 0.443113 18.9855 0.348743 21.4972 0.392499C23.3973 0.378132 23.8435 1.47236 23.8497 3.42669C23.8958 6.055 23.8269 51.4481 23.7808 53.3521ZM286.298 34.3241C286.334 38.7389 287.402 41.6937 292.467 42.4804C296.523 42.899 302.01 42.9849 306.22 42.5578C310.075 42.1352 313.043 40.5744 313.217 36.2157C313.412 32.535 313.429 31.9012 313.441 28.0196C313.462 18.5996 313.36 4.91702 313.391 3.57396L313.407 3.00252C313.376 0.916593 314.329 0.0355927 316.098 0.0355927L317.156 0C319.169 0.0166535 327.27 0.0355927 329.231 0.0355927C330.999 0.0355927 331.952 0.916593 331.922 3.00252L331.897 3.65331C331.935 5.62038 331.874 26.4588 331.853 32.6085C331.742 35.6969 331.522 42.8905 329.14 47.4519C327.066 51.4109 323.354 54.4555 317.043 55.0812C304.911 56.2884 293.85 55.7865 285.332 55.4306C279.001 55.104 274.923 53.6875 271.539 49.9317C267.71 45.6253 267.509 38.2664 267.565 29.8254C267.492 11.2009 267.436 5.83361 267.465 4.05724V3.00252C267.435 0.916593 268.389 0.0355927 270.157 0.0355927L271.208 0C273.24 0.0166535 281.645 0.0355927 283.61 0.0355927C285.372 0.0355927 286.333 0.916593 286.298 3.00252C286.268 5.09727 286.29 28.9486 286.298 34.2029M191.933 0.200495C193.827 0.14433 227.697 0.184168 238.287 0.242618C247.664 0.34711 251.131 1.68004 253.676 5.08224C256.613 9.01377 256.917 13.9396 254.543 17.9926C252.84 20.8988 249.69 23.435 244.964 25.7387C241.211 27.6637 234.642 30.5846 228.221 33.4075C219.622 37.2009 211.835 40.4862 210.526 41.1703C208.753 42.0993 209.424 43.491 210.831 43.4701C214.506 43.426 249.985 43.137 251.879 43.1331C253.781 43.1312 254.399 43.8153 254.399 45.8555C254.395 47.9897 254.416 51.6388 254.42 53.294C254.376 55.2839 253.741 55.828 251.853 55.8466C249.698 55.8694 211.904 55.8802 209.216 55.8926C203.242 55.8779 197.089 55.9011 193.419 54.1247C188.835 51.9004 187.285 47.4415 187.281 44.3155C187.499 36.6967 191.749 34.2572 199.408 30.7126C207.924 26.8519 233.063 15.9903 234.56 15.2954C236.416 14.4314 235.84 12.7321 234.118 12.7886C232.796 12.816 194.29 13.0126 192.388 13.0106C190.492 13.0041 189.286 12.6988 189.286 10.8616C189.29 9.03303 189.269 4.44615 189.269 2.55876C189.269 0.6632 190.031 0.260904 191.933 0.200495ZM92.4866 28.8497C83.9693 25.3159 59.1156 17.463 55.8182 15.8329C54.2304 15.1507 54.3373 13.1252 56.4865 13.1252C60.1568 13.1797 96.5869 13.2509 98.4892 13.2633C100.389 13.2676 101.19 12.529 101.19 10.4845C101.198 8.35253 101.183 4.43962 101.158 2.7217C101.133 0.974717 100.502 0.313477 98.9309 0.309232C97.36 0.309232 55.286 0.359519 55.286 0.359519C43.5442 0.332416 40.532 2.0585 37.2052 6.0488C32.8686 11.2548 34.2472 18.3022 36.7357 21.9365C39.5388 26.0019 44.1667 27.7995 51.53 30.3733C60.4501 33.2713 81.4575 40.6511 81.4575 40.6511C83.3828 41.4818 83.236 43.4969 80.8586 43.4969C80.8586 43.4969 40.7853 43.137 38.8872 43.1328C36.9852 43.1308 36.0571 44.0579 36.0486 45.8927C36.0486 47.7278 36.0322 51.0902 36.0237 52.9985C36.0237 54.8859 36.5723 55.9635 38.4746 56.0307C40.3643 56.0954 74.821 55.9654 85.4169 55.9449C93.4781 55.924 101.265 53.4361 102.863 44.5431C103.821 36.8806 100.573 32.1307 92.4873 28.8497" fill="#E60012"/>
<defs>
<filter id="filter0_i_113_88" x="0.951691" y="77.2471" width="332.507" height="42.9348" filterUnits="userSpaceOnUse" color-interpolation-filters="sRGB">
<feFlood flood-opacity="0" result="BackgroundImageFix"/>
<feBlend mode="normal" in="SourceGraphic" in2="BackgroundImageFix" result="shape"/>
<feColorMatrix in="SourceAlpha" type="matrix" values="0 0 0 0 0 0 0 0 0 0 0 0 0 0 0 0 0 0 127 0" result="hardAlpha"/>
<feOffset dy="4"/>
<feGaussianBlur stdDeviation="2"/>
<feComposite in2="hardAlpha" operator="arithmetic" k2="-1" k3="1"/>
<feColorMatrix type="matrix" values="0 0 0 0 0 0 0 0 0 0 0 0 0 0 0 0 0 0 0.25 0"/>
<feBlend mode="normal" in2="shape" result="effect1_innerShadow_113_88"/>
</filter>
</defs>
</svg>
