<svg width="24" height="24" viewBox="0 0 24 24" fill="none" xmlns="http://www.w3.org/2000/svg">
<path d="M21.5 13.4001C21.5 14.6001 21.3 15.7001 20.8 16.8001C20.3 17.9001 19.6 18.8001 18.7 19.7001C17.8 20.5001 16.8 21.2001 15.6 21.6001C15.1 21.8001 14.5 22.0001 13.9 22.1001L14.2 22.0001C14.2 22.0001 16.4 20.7001 16.9 17.9001C17.1 15.4001 15 14.3001 15 14.3001C15 14.3001 13.9 15.7001 12.4 15.7001C10 15.7001 10.4 11.7001 10.4 11.7001C10.4 11.7001 6.8 13.6001 6.8 17.6001C6.8 20.1001 9.4 22.0001 9.4 22.0001C9.1 21.9001 8.7 21.8001 8.4 21.7001C7.2 21.3001 6.2 20.6001 5.3 19.8001C4.4 19.0001 3.7 18.0001 3.2 16.9001C2.7 15.8001 2.5 14.7001 2.5 13.5001C2.5 9.6001 7.1 5.8001 7.1 5.8001C7.1 5.8001 7.5 8.8001 9.8 8.8001C14 8.8001 12.5 2.1001 12.5 2.1001C12.5 2.1001 16.3 4.3001 17.4 10.3001C19.5 10.0001 19.3 7.3001 19.3 7.3001C19.3 7.3001 21.5 10.2001 21.5 13.4001Z" fill="#666666"/>
</svg>
